<svg width="36" height="36" viewBox="0 0 36 36" fill="none" xmlns="http://www.w3.org/2000/svg">
<path d="M35.8024 20.88H24.8826C23.9635 23.8011 21.2296 25.92 18 25.92C14.7704 25.92 12.0365 23.8011 11.1174 20.88H0.197642C1.57857 29.4521 9.02326 36 18 36C26.9767 36 34.4214 29.4521 35.8024 20.88Z" fill="#E30000"/>
<path d="M36 16.92H24.9855C24.1848 13.8146 21.3609 11.52 18 11.52C14.6391 11.52 11.8152 13.8146 11.0145 16.92H0C0.559524 7.4817 8.40449 0 18 0C27.5955 0 35.4405 7.4817 36 16.92Z" fill="#E30000"/>
<path d="M22.3277 18.72C22.3277 21.1059 20.3901 23.04 18 23.04C15.6099 23.04 13.6723 21.1059 13.6723 18.72C13.6723 16.3341 15.6099 14.4 18 14.4C20.3901 14.4 22.3277 16.3341 22.3277 18.72Z" fill="#E30000"/>
</svg>
